SplineFontDB: 3.2
FontName: MFEKSerif-Book
FullName: MFEK Serif Book
FamilyName: MFEK Serif
Weight: Book
Copyright: Copyright (c) 2023, Owen Earl
UComments: "2023-1-9: Created with FontForge (http://fontforge.org)"
Version: 001.000
ItalicAngle: 0
UnderlinePosition: -200
UnderlineWidth: 100
Ascent: 1600
Descent: 400
InvalidEm: 0
LayerCount: 2
Layer: 0 0 "Back" 1
Layer: 1 0 "Fore" 0
XUID: [1021 234 -343097870 1224712]
FSType: 0
OS2Version: 0
OS2_WeightWidthSlopeOnly: 0
OS2_UseTypoMetrics: 1
CreationTime: 1673299913
PfmFamily: 17
TTFWeight: 400
TTFWidth: 5
LineGap: 180
VLineGap: 0
OS2TypoAscent: 0
OS2TypoAOffset: 1
OS2TypoDescent: 0
OS2TypoDOffset: 1
OS2TypoLinegap: 180
OS2WinAscent: 0
OS2WinAOffset: 1
OS2WinDescent: 0
OS2WinDOffset: 1
HheadAscent: 0
HheadAOffset: 1
HheadDescent: 0
HheadDOffset: 1
OS2Vendor: 'PfEd'
MarkAttachClasses: 1
DEI: 91125
LangName: 1033
Encoding: ISO8859-1
UnicodeInterp: none
NameList: AGL For New Fonts
BeginPrivate: 0
EndPrivate
Grid
-2000 -360 m 0
 4000 -360 l 1024
  Named: "decenders"
-2000 -35 m 0
 4000 -35 l 1024
  Named: "overshoot"
-2000 1050 m 0
 4000 1050 l 1024
  Named: "X Height"
-2000 1400 m 0
 4000 1400 l 1024
  Named: "Capital Height"
EndSplineSet
BeginChars: 127 95

StartChar: I
Encoding: 73 73 0
Width: 550
VWidth: 1920
Flags: MW
LayerCount: 2
Fore
SplineSet
180 1400 m 1
 370 1400 l 1
 370 0 l 1
 180 0 l 1
 180 1400 l 1
EndSplineSet
EndChar

StartChar: A
Encoding: 65 65 1
Width: 1280
VWidth: 1920
Flags: MW
LayerCount: 2
Fore
SplineSet
310 570 m 1
 940 570 l 1
 940 420 l 1
 310 420 l 1
 310 570 l 1
624.30859375 1226.3828125 m 1
 220 0 l 1
 40 0 l 1
 525 1400 l 1
 745 1400 l 1
 1240 0 l 1
 1040 0 l 1
 624.30859375 1226.3828125 l 1
EndSplineSet
EndChar

StartChar: B
Encoding: 66 66 2
Width: 1280
VWidth: 1920
Flags: MW
LayerCount: 2
Fore
SplineSet
360 790 m 1
 690 790 l 2
 857 790 945 863 945 983 c 2
 945 1068 l 2
 945 1188 857 1250 690 1250 c 2
 360 1250 l 1
 360 790 l 1
710 750 m 1
 967 750 1195 652 1195 402 c 2
 1195 347 l 2
 1195 67 967 0 710 0 c 2
 170 0 l 1
 170 1400 l 1
 690 1400 l 2
 947 1400 1145 1313 1145 1063 c 2
 1145 1038 l 2
 1145 788 947 700 690 700 c 1
 710 750 l 1
710 640 m 2
 360 640 l 1
 360 150 l 1
 710 150 l 2
 887 150 995 222 995 342 c 2
 995 437 l 2
 995 557 887 640 710 640 c 2
EndSplineSet
EndChar

StartChar: C
Encoding: 67 67 3
Width: 1385
VWidth: 1920
Flags: MW
LayerCount: 2
Fore
SplineSet
1270 508 m 1
 1250 208 1062 -35 695 -35 c 0
 308 -35 100 238 100 618 c 2
 100 783 l 2
 100 1163 308 1435 695 1435 c 0
 1062 1435 1230 1213 1240 963 c 1
 1070 963 l 1
 1070 1153 922 1295 705 1295 c 0
 448 1295 300 1063 300 793 c 2
 300 608 l 2
 300 338 428 105 705 105 c 0
 942 105 1100 288 1100 508 c 1
 1270 508 l 1
EndSplineSet
EndChar

StartChar: D
Encoding: 68 68 4
Width: 1450
VWidth: 1920
Flags: MW
LayerCount: 2
Fore
SplineSet
705 0 m 26
 170 0 l 1
 170 1400 l 1
 705 1400 l 26
 1019 1400 1280 1168.79492188 1280 783 c 2
 1280 618 l 2
 1280 231.891601562 1059.24804688 0 705 0 c 26
665 150 m 26
 919.52734375 150 1080 309.787109375 1080 608 c 2
 1080 793 l 2
 1080 1090.875 919.025390625 1250 665 1250 c 2
 360 1250 l 1
 360 150 l 1
 665 150 l 26
EndSplineSet
EndChar

StartChar: E
Encoding: 69 69 5
Width: 1280
VWidth: 1920
Flags: MW
LayerCount: 2
Fore
SplineSet
360 790 m 1
 910 790 l 1
 910 640 l 1
 360 640 l 1
 360 150 l 1
 1180 150 l 1
 1180 0 l 25
 170 0 l 25
 170 1400 l 25
 1160 1400 l 17
 1160 1250 l 1
 360 1250 l 1
 360 790 l 1
EndSplineSet
EndChar

StartChar: F
Encoding: 70 70 6
Width: 1170
VWidth: 1920
Flags: MW
LayerCount: 2
Fore
SplineSet
360 790 m 1
 820 790 l 1
 820 640 l 1
 360 640 l 1
 360 0 l 1
 170 0 l 1
 170 1400 l 1
 1110 1400 l 1
 1110 1250 l 1
 360 1250 l 1
 360 790 l 1
EndSplineSet
EndChar

StartChar: G
Encoding: 71 71 7
Width: 1385
VWidth: 1920
Flags: MW
LayerCount: 2
Fore
SplineSet
1170 620 m 1
 1150 230 1002 -35 675 -35 c 0
 298 -35 100 238 100 618 c 2
 100 783 l 2
 100 1163 308 1435 695 1435 c 0
 1062 1435 1230 1213 1240 963 c 1
 1080 963 l 1
 1080 1153 922 1295 705 1295 c 0
 448 1295 300 1063 300 793 c 2
 300 608 l 2
 300 338 438 105 715 105 c 0
 952 105 1070 370 1070 660 c 1
 1170 620 l 1
1080 320 m 1
 1070 660 l 1
 1270 660 l 1
 1270 0 l 1
 1160 0 l 1
 1080 320 l 1
EndSplineSet
EndChar

StartChar: H
Encoding: 72 72 8
Width: 1380
VWidth: 1920
Flags: MW
LayerCount: 2
Fore
SplineSet
1040 1400 m 1
 1230 1400 l 1
 1230 0 l 1
 1040 0 l 1
 1040 640 l 1
 340 640 l 1
 340 0 l 1
 150 0 l 1
 150 1400 l 1
 340 1400 l 1
 340 790 l 1
 1040 790 l 1
 1040 1400 l 1
EndSplineSet
EndChar

StartChar: J
Encoding: 74 74 9
Width: 1161
VWidth: 1920
Flags: MW
LayerCount: 2
Fore
SplineSet
803 1400 m 1
 1003 1400 l 1
 1003 538 l 2
 1003 152.423828125 853.649414062 -35 508.575195312 -35 c 0
 212.5703125 -35 53 153.754882812 53 478 c 2
 53 663 l 1
 223 663 l 1
 223 488 l 2
 223 256.828125 322.043945312 125 495.811523438 125 c 0
 700.5859375 125 803 248.626953125 803 508 c 2
 803 1400 l 1
  Spiro
    803 1400 v
    1003 1400 v
    1003 538 ]
    951.604 218.332 o
    789.906 27.7459 o
    508.575 -35 o
    259.108 25.8257 o
    105.229 201.119 o
    53 478 [
    53 663 v
    223 663 v
    223 488 ]
    255.051 291.307 o
    347.974 167.655 o
    495.812 125 o
    666.327 166.574 o
    768.932 293.597 o
    803 508 [
    0 0 z
  EndSpiro
EndSplineSet
EndChar

StartChar: K
Encoding: 75 75 10
Width: 1280
VWidth: 1920
Flags: MW
LayerCount: 2
Fore
SplineSet
480 820 m 1
 670 850 l 1
 1260 0 l 1
 1040 0 l 1
 480 820 l 1
1040 1400 m 1
 1250 1400 l 1
 270 430 l 1
 210 560 l 1
 1040 1400 l 1
150 1400 m 1
 340 1400 l 1
 340 0 l 1
 150 0 l 1
 150 1400 l 1
EndSplineSet
EndChar

StartChar: L
Encoding: 76 76 11
Width: 1067
VWidth: 1920
Flags: MW
LayerCount: 2
Fore
SplineSet
150 1400 m 1
 340 1400 l 1
 340 150 l 1
 1000 150 l 1
 1000 0 l 1
 150 0 l 1
 150 1400 l 1
EndSplineSet
EndChar

StartChar: M
Encoding: 77 77 12
Width: 1600
VWidth: 1920
Flags: MW
LayerCount: 2
Fore
SplineSet
300 1220.40816327 m 1
 300 0 l 1
 150 0 l 1
 150 1400 l 1
 410 1400 l 1
 820 319 l 1
 1220 1400 l 1
 1450 1400 l 1
 1450 0 l 1
 1280 0 l 1
 1280 1167.34693878 l 1
 840 0 l 1
 760 0 l 1
 300 1220.40816327 l 1
EndSplineSet
EndChar

StartChar: N
Encoding: 78 78 13
Width: 1380
VWidth: 1920
Flags: MW
LayerCount: 2
Fore
SplineSet
1060 1400 m 1
 1230 1400 l 1
 1230 0 l 1
 1120 0 l 1
 320 1150.43457031 l 1
 320 0 l 1
 150 0 l 1
 150 1400 l 1
 360 1400 l 1
 1060 408.878504673 l 1
 1060 1400 l 1
EndSplineSet
EndChar

StartChar: O
Encoding: 79 79 14
Width: 1490
VWidth: 1920
Flags: MW
LayerCount: 2
Fore
SplineSet
100 618 m 2
 100 783 l 2
 100 1168.79512682 363.346845401 1435 745 1435 c 0
 1126.6531546 1435 1390 1168.79512682 1390 783 c 2
 1390 618 l 2
 1390 231.891434913 1126.3782917 -35 745 -35 c 0
 363.621708298 -35 100 231.891434913 100 618 c 2
300 608 m 2
 300 309.786901998 481.17330296 105 745 105 c 0
 1008.82669704 105 1190 309.786901998 1190 608 c 2
 1190 793 l 2
 1190 1090.87452593 1009.0521196 1295 745 1295 c 0
 480.947880401 1295 300 1090.87452593 300 793 c 2
 300 608 l 2
EndSplineSet
EndChar

StartChar: P
Encoding: 80 80 15
Width: 1280
VWidth: 1920
Flags: MW
LayerCount: 2
Fore
SplineSet
360 1250 m 1
 360 750 l 1
 700 750 l 2
 867 750 975 818 975 938 c 2
 975 1062 l 2
 975 1182 867 1250 700 1250 c 2
 360 1250 l 1
700 1400 m 2
 987 1400 1175 1302 1175 1032 c 2
 1175 968 l 2
 1175 698 987 600 700 600 c 2
 360 600 l 1
 360 0 l 1
 170 0 l 1
 170 1400 l 1
 700 1400 l 2
EndSplineSet
EndChar

StartChar: Q
Encoding: 81 81 16
Width: 1490
VWidth: 1920
Flags: MW
LayerCount: 2
Fore
SplineSet
1525 120 m 1
 1525 0 l 1
 1308 -60 1190 88 1190 358 c 1
 1300 588 l 1
 1300 238 1152 -35 725 -35 c 0
 278 -35 140 238 140 588 c 2
 140 813 l 2
 140 1163 288 1435 745 1435 c 0
 1202 1435 1350 1163 1350 813 c 2
 1350 328 l 2
 1350 248 1428 150 1525 120 c 1
1150 558 m 2
 1150 843 l 2
 1150 1113 1022 1295 745 1295 c 0
 468 1295 340 1113 340 843 c 2
 340 558 l 2
 340 288 468 105 745 105 c 0
 1022 105 1150 288 1150 558 c 2
EndSplineSet
EndChar

StartChar: R
Encoding: 82 82 17
Width: 1380
VWidth: 1920
Flags: MW
LayerCount: 2
Fore
SplineSet
360 1250 m 1
 360 790 l 1
 760 790 l 2
 927 790 1015 858 1015 978 c 2
 1015 1062 l 2
 1015 1182 927 1250 760 1250 c 2
 360 1250 l 1
760 1400 m 2
 1017 1400 1215 1282 1215 1042 c 2
 1215 1018 l 2
 1215 778 1017 680 760 680 c 1
 760 740 l 1
 1017 740 1205 662 1205 422 c 2
 1205 328 l 2
 1205 208 1240 120 1290 50 c 1
 1290 0 l 1
 1090 0 l 1
 1030 100 1015 238 1015 328 c 2
 1015 452 l 2
 1015 572 927 640 760 640 c 2
 360 640 l 1
 360 0 l 1
 170 0 l 1
 170 1400 l 1
 760 1400 l 2
EndSplineSet
EndChar

StartChar: S
Encoding: 83 83 18
Width: 1280
VWidth: 1920
Flags: MW
LayerCount: 2
Fore
SplineSet
90 508 m 1
 260 508 l 1
 270 262.59765625 423.510742188 115 660.08984375 115 c 0
 868.124023438 115 1010 186.604492188 1010 358 c 0
 1010 521.729492188 829.109375 575.2265625 628 614.35546875 c 0
 325.51953125 673.208007812 140 794.966796875 140 1043 c 0
 140 1273 318 1435 625 1435 c 0
 942 1435 1130 1263 1140 963 c 1
 970 963 l 1
 970 1173 822 1295 635 1295 c 0
 448 1295 320 1223 320 1063 c 0
 320 911.723632812 478.866790398 826.040278731 647.999994079 792.261600569 c 0
 1023.14589291 717.338804189 1200 616.510742188 1200 388 c 0
 1200 120.7265625 1039.34179688 -35 650.27734375 -35 c 0
 342.916015625 -35 110.258993988 122.949617227 90 508 c 1
EndSplineSet
EndChar

StartChar: T
Encoding: 84 84 19
Width: 1170
VWidth: 1920
Flags: MW
LayerCount: 2
Fore
SplineSet
40 1400 m 1
 1130 1400 l 1
 1130 1250 l 1
 680 1250 l 1
 680 0 l 1
 490 0 l 1
 490 1250 l 1
 40 1250 l 1
 40 1400 l 1
EndSplineSet
EndChar

StartChar: U
Encoding: 85 85 20
Width: 1390
VWidth: 1920
Flags: MW
LayerCount: 2
Fore
SplineSet
365 1400 m 1
 365 558 l 1
 165 588 l 1
 165 1400 l 1
 365 1400 l 1
1225 1400 m 1
 1225 498 l 1
 1055 488 l 1
 1055 1400 l 1
 1225 1400 l 1
165 588 m 1
 365 558 l 1
 365 258 433 105 700 105 c 0
 927 105 1055 228 1055 488 c 1
 1225 498 l 1
 1225 178 1097 -35 700 -35 c 0
 243 -35 165 208 165 588 c 1
EndSplineSet
EndChar

StartChar: V
Encoding: 86 86 21
Width: 1280
VWidth: 1920
Flags: MW
LayerCount: 2
Fore
SplineSet
655.69140625 173.6171875 m 1
 1060 1400 l 1
 1240 1400 l 1
 755 0 l 1
 535 0 l 1
 40 1400 l 1
 240 1400 l 1
 655.69140625 173.6171875 l 1
EndSplineSet
EndChar

StartChar: W
Encoding: 87 87 22
Width: 1810
VWidth: 1920
Flags: MW
LayerCount: 2
Fore
SplineSet
529.931640625 210.13671875 m 1
 870 1400 l 1
 990 1400 l 1
 1317.70800781 193.888671875 l 1
 1610 1400 l 1
 1790 1400 l 1
 1415 0 l 1
 1195 0 l 1
 913.301757812 1050.9921875 l 1
 625 0 l 1
 410 0 l 1
 45 1400 l 1
 240 1400 l 1
 529.931640625 210.13671875 l 1
EndSplineSet
EndChar

StartChar: X
Encoding: 88 88 23
Width: 1280
VWidth: 1920
Flags: MW
LayerCount: 2
Fore
SplineSet
1005 1400 m 1
 1200 1400 l 1
 741.688476562 725.092773438 l 1
 1230 0 l 1
 1010 0 l 1
 639.657226562 572.559570312 l 1
 245 0 l 1
 50 0 l 1
 548.865234375 709.234375 l 1
 80 1400 l 1
 300 1400 l 1
 650.897460938 861.767578125 l 1
 1005 1400 l 1
EndSplineSet
EndChar

StartChar: Y
Encoding: 89 89 24
Width: 1280
VWidth: 1920
Flags: MW
LayerCount: 2
Fore
SplineSet
1065 1400 m 1
 1240 1400 l 1
 735 550 l 1
 735 0 l 1
 545 0 l 1
 545 550 l 1
 40 1400 l 1
 245 1400 l 1
 655 709.901367188 l 1
 1065 1400 l 1
EndSplineSet
EndChar

StartChar: Z
Encoding: 90 90 25
Width: 1170
VWidth: 1920
Flags: MW
LayerCount: 2
Fore
SplineSet
-30 0 m 1
 856.071289062 1250 l 1
 110 1250 l 1
 110 1400 l 1
 1160 1400 l 1
 273.928710938 150 l 1
 1100 150 l 1
 1100 0 l 1
 -30 0 l 1
EndSplineSet
EndChar

StartChar: a
Encoding: 97 97 26
Width: 1110
VWidth: 1920
Flags: MW
LayerCount: 2
Fore
SplineSet
268 283 m 2
 268 253 l 2
 268 156 342 95 460 95 c 0
 624 95 778 222 778 398 c 1
 838 328 l 1
 838 125 647 -35 406 -35 c 0
 209 -35 78 68 78 249 c 2
 78 299 l 2
 78 487 221 578 529 615 c 0
 713 637 778 655 778 738 c 1
 818 618 l 1
 818 555 726 527 556 500 c 0
 355 468 268 407 268 283 c 2
778 208 m 2
 778 788 l 2
 778 888 694 955 559 955 c 0
 407 955 308 854 308 713 c 1
 138 713 l 1
 159 953 309 1085 578 1085 c 0
 838 1085 958 971 958 733 c 2
 958 208 l 2
 958 108 982 40 1022 0 c 1
 838 0 l 1
 798 40 778 108 778 208 c 2
EndSplineSet
EndChar

StartChar: b
Encoding: 98 98 27
Width: 1110
VWidth: 1920
Flags: MW
LayerCount: 2
Fore
SplineSet
95 1450 m 1
 285 1450 l 1
 285 175 l 1
 145 -35 l 1
 95 -35 l 1
 95 1450 l 1
215 633 m 1
 215 923 402 1085 599 1085 c 0
 806 1085 1035 943 1035 603 c 2
 1035 447 l 2
 1035 127 816 -35 609 -35 c 0
 382 -35 185 127 185 417 c 1
 285 437 l 1
 285 227 402 105 559 105 c 0
 706 105 845 207 845 417 c 2
 845 633 l 2
 845 843 706 945 559 945 c 0
 402 945 285 823 285 613 c 1
 215 633 l 1
EndSplineSet
EndChar

StartChar: c
Encoding: 99 99 28
Width: 1000
VWidth: 1920
Flags: MW
LayerCount: 2
Fore
SplineSet
955 388 m 1
 943 124 777 -35 530 -35 c 0
 250 -35 65 151 65 448 c 2
 65 603 l 2
 65 900 245 1085 525 1085 c 0
 777 1085 934 941 945 663 c 1
 785 663 l 1
 775 853 679 945 520 945 c 0
 366 945 255 833 255 633 c 2
 255 418 l 2
 255 225 376 105 535 105 c 0
 695 105 785 215 795 388 c 1
 955 388 l 1
EndSplineSet
EndChar

StartChar: d
Encoding: 100 100 29
Width: 1110
VWidth: 1920
Flags: MW
LayerCount: 2
Fore
SplineSet
895 417 m 1
 895 127 706 -35 509 -35 c 0
 302 -35 75 107 75 447 c 2
 75 603 l 2
 75 943 302 1085 509 1085 c 0
 706 1085 895 923 895 633 c 1
 825 613 l 1
 825 823 706 945 549 945 c 0
 402 945 265 843 265 633 c 2
 265 417 l 2
 265 207 402 105 549 105 c 0
 706 105 825 227 825 437 c 1
 895 417 l 1
1015 1450 m 1
 1015 0 l 1
 840 0 l 1
 840 220 l 1
 825 252 l 1
 825 1450 l 1
 1015 1450 l 1
EndSplineSet
EndChar

StartChar: e
Encoding: 101 101 30
Width: 1110
VWidth: 1920
Flags: MW
LayerCount: 2
Fore
SplineSet
1016 338 m 1
 963 96 796 -35 562 -35 c 0
 293 -35 106 138 106 448 c 2
 106 603 l 2
 106 903 293 1085 570 1085 c 0
 837 1085 992 889 1016 674 c 0
 1024 601 1024 575 1024 485 c 1
 230 485 l 1
 230 605 l 1
 840 605 l 1
 835 832 733 955 570 955 c 0
 413 955 296 843 296 633 c 2
 296 418 l 2
 296 198 403 95 570 95 c 0
 704 95 812 182 846 338 c 1
 1016 338 l 1
EndSplineSet
EndChar

StartChar: f
Encoding: 102 102 31
Width: 620
VWidth: 1920
Flags: MW
LayerCount: 2
Fore
SplineSet
590 910 m 1
 60 910 l 1
 60 1050 l 1
 590 1050 l 1
 590 910 l 1
180 1188 m 2
 180 1398 293 1470 590 1440 c 1
 590 1310 l 1
 433 1330 365 1298 365 1168 c 2
 365 0 l 1
 180 0 l 1
 180 1188 l 2
EndSplineSet
EndChar

StartChar: g
Encoding: 103 103 32
Width: 1000
VWidth: 1920
Flags: MW
LayerCount: 2
Fore
SplineSet
955 1260 m 1
 945 1060 725 970 675 970 c 1
 645 1000 l 1
 705 1000 735 1060 765 1260 c 1
 955 1260 l 1
  Spiro
    955 1260 v
    893.626 1096.05 o
    769.69 1000.68 o
    675 970 v
    645 1000 v
    702.724 1022.91 o
    747.256 1103.82 o
    765 1260 v
    0 0 z
  EndSpiro
643 140 m 2
 883 140 1005 82 1005 -85 c 0
 1005 -262 803 -360 563 -360 c 2
 338 -360 l 2
 158 -360 5 -292 5 -135 c 0
 5 -18 138 90 298 90 c 1
 328 50 l 1
 238 50 165 2 165 -75 c 0
 165 -172 268 -210 398 -210 c 2
 543 -210 l 2
 733 -210 845 -152 845 -75 c 0
 845 -18 783 0 663 0 c 2
 388 0 l 2
 198 0 126 98 126 195 c 0
 126 302 220 395 410 395 c 1
 390 345 l 1
 330 345 286 302 286 245 c 0
 286 183 338 140 468 140 c 2
 643 140 l 2
  Spiro
    643 140 ]
    843.358 118.822 o
    964.562 47.4555 o
    1005 -85 o
    943.857 -234.841 o
    784.063 -328.1 o
    563 -360 [
    338 -360 ]
    171.815 -336.603 o
    51.2454 -263.011 o
    5 -135 o
    45.3306 -24.7667 o
    151.056 57.7276 o
    298 90 v
    328 50 v
    245.813 34.7336 o
    187.217 -8.42594 o
    165 -75 o
    196.458 -153.051 o
    279.918 -196.583 o
    398 -210 [
    543 -210 ]
    705.606 -192.145 o
    808.997 -144.162 o
    845 -75 o
    824.522 -30.2556 o
    763.438 -6.76345 o
    663 0 [
    388 0 ]
    235.746 28.9457 o
    151.651 101.42 o
    126 195 o
    157.345 294.319 o
    252.052 366.979 o
    410 395 v
    390 345 v
    336.417 331.766 o
    299.603 296.215 o
    286 245 o
    304.259 190.269 o
    363.118 153.418 o
    468 140 [
    0 0 z
  EndSpiro
725 668 m 2
 725 723 l 2
 725 870.170898438 642.73046875 955 500.727539062 955 c 0
 352.546875 955 255 862.629882812 255 723 c 2
 255 668 l 2
 255 528.012695312 352.802734375 435 500.729492188 435 c 0
 642.5 435 725 520.432617188 725 668 c 2
  Spiro
    725 668 [
    725 723 ]
    703.822 836.378 o
    632.456 921.582 o
    500 955 o
    362.368 921.582 o
    281.354 836.378 o
    255 723 [
    255 668 ]
    281.354 554.363 o
    362.368 468.677 o
    500 435 o
    632.456 468.677 o
    703.822 554.363 o
    0 0 z
  EndSpiro
905 638 m 2
 905 458 757 305 490 305 c 0
 223 305 75 458 75 638 c 2
 75 753 l 2
 75 933 223 1085 490 1085 c 0
 757 1085 905 933 905 753 c 2
 905 638 l 2
  Spiro
    905 638 ]
    852.398 454.037 o
    707.186 342.37 o
    490 305 o
    272.814 342.37 o
    127.602 454.037 o
    75 638 [
    75 753 ]
    127.602 936.704 o
    272.814 1047.89 o
    490 1085 o
    707.186 1047.89 o
    852.398 936.704 o
    905 753 [
    0 0 z
  EndSpiro
EndSplineSet
EndChar

StartChar: h
Encoding: 104 104 33
Width: 1110
VWidth: 1920
Flags: MW
LayerCount: 2
Fore
SplineSet
125 1450 m 1
 315 1450 l 1
 315 0 l 1
 125 0 l 1
 125 1450 l 1
265 703 m 1
 265 923 433 1085 640 1085 c 0
 847 1085 985 963 985 763 c 2
 985 0 l 1
 795 0 l 1
 795 763 l 2
 795 883 727 955 590 955 c 0
 423 955 315 833 315 623 c 1
 265 703 l 1
EndSplineSet
EndChar

StartChar: i
Encoding: 105 105 34
Width: 445
VWidth: 1920
Flags: MW
LayerCount: 2
Fore
SplineSet
328 1410 m 1
 328 1210 l 1
 118 1210 l 1
 118 1410 l 1
 328 1410 l 1
318 1050 m 1
 318 0 l 1
 128 0 l 1
 128 1050 l 1
 318 1050 l 1
EndSplineSet
EndChar

StartChar: j
Encoding: 106 106 35
Width: 445
VWidth: 1920
Flags: MW
LayerCount: 2
Fore
SplineSet
318 -98 m 2
 318 -308 195 -380 -102 -350 c 1
 -102 -220 l 1
 55 -240 128 -208 128 -78 c 2
 128 1050 l 1
 318 1050 l 1
 318 -98 l 2
328 1410 m 1
 328 1210 l 1
 118 1210 l 1
 118 1410 l 1
 328 1410 l 1
EndSplineSet
EndChar

StartChar: k
Encoding: 107 107 36
Width: 1000
VWidth: 1920
Flags: MW
LayerCount: 2
Fore
SplineSet
190 463 m 1
 740 1050 l 1
 960 1050 l 1
 300 433 l 1
 190 463 l 1
420 653 m 1
 570 713 l 1
 1020 0 l 1
 800 0 l 1
 420 653 l 1
120 1450 m 1
 310 1450 l 1
 310 0 l 1
 120 0 l 1
 120 1450 l 1
EndSplineSet
EndChar

StartChar: l
Encoding: 108 108 37
Width: 445
VWidth: 1920
Flags: MW
LayerCount: 2
Fore
SplineSet
318 1450 m 1
 318 0 l 1
 128 0 l 1
 128 1450 l 1
 318 1450 l 1
EndSplineSet
EndChar

StartChar: m
Encoding: 109 109 38
Width: 1665
VWidth: 1920
Flags: MW
LayerCount: 2
Fore
SplineSet
858 703 m 1
 858 923 1035 1085 1222 1085 c 0
 1409 1085 1538 963 1538 763 c 2
 1538 0 l 1
 1348 0 l 1
 1348 763 l 2
 1348 883 1289 955 1172 955 c 0
 1025 955 928 833 928 623 c 1
 858 703 l 1
128 1050 m 1
 308 1050 l 1
 308 852 l 1
 318 825 l 1
 318 0 l 1
 128 0 l 1
 128 1050 l 1
268 703 m 1
 268 923 425 1085 612 1085 c 0
 799 1085 928 963 928 763 c 2
 928 0 l 1
 738 0 l 1
 738 763 l 2
 738 883 679 955 562 955 c 0
 415 955 318 833 318 623 c 1
 268 703 l 1
EndSplineSet
EndChar

StartChar: n
Encoding: 110 110 39
Width: 1110
VWidth: 1920
Flags: MW
LayerCount: 2
Fore
SplineSet
125 1050 m 1
 305 1050 l 1
 305 837 l 1
 315 810 l 1
 315 0 l 1
 125 0 l 1
 125 1050 l 1
265 703 m 1
 265 923 433 1085 640 1085 c 0
 847 1085 985 963 985 763 c 2
 985 0 l 1
 795 0 l 1
 795 763 l 2
 795 883 727 955 590 955 c 0
 423 955 315 833 315 623 c 1
 265 703 l 1
EndSplineSet
EndChar

StartChar: o
Encoding: 111 111 40
Width: 1110
VWidth: 1920
Flags: MW
LayerCount: 2
Fore
SplineSet
90 448 m 2
 90 603 l 2
 90 893 278 1085 555 1085 c 0
 832 1085 1020 893 1020 603 c 2
 1020 448 l 2
 1020 158 832 -35 555 -35 c 0
 278 -35 90 158 90 448 c 2
285 418 m 2
 285 228 368 95 555 95 c 0
 742 95 825 228 825 418 c 2
 825 633 l 2
 825 823 742 955 555 955 c 0
 368 955 285 823 285 633 c 2
 285 418 l 2
EndSplineSet
EndChar

StartChar: p
Encoding: 112 112 41
Width: 1110
VWidth: 1920
Flags: MW
LayerCount: 2
Fore
SplineSet
215 633 m 1
 215 923 422 1085 619 1085 c 0
 826 1085 1035 943 1035 603 c 2
 1035 447 l 2
 1035 107 826 -35 619 -35 c 0
 422 -35 215 127 215 417 c 1
 285 437 l 1
 285 227 422 105 579 105 c 0
 726 105 845 207 845 417 c 2
 845 633 l 2
 845 843 726 945 579 945 c 0
 422 945 285 823 285 613 c 1
 215 633 l 1
95 -360 m 1
 95 1050 l 1
 270 1050 l 1
 270 800 l 1
 285 756 l 1
 285 -360 l 1
 95 -360 l 1
  Spiro
    95 -360 v
    95 1050 v
    270 1050 v
    270 800 v
    285 756 v
    285 -360 v
    0 0 z
  EndSpiro
EndSplineSet
EndChar

StartChar: q
Encoding: 113 113 42
Width: 1110
VWidth: 1920
Flags: MW
LayerCount: 2
Fore
SplineSet
1015 -360 m 1
 825 -360 l 1
 825 875 l 1
 965 1085 l 1
 1015 1085 l 1
 1015 -360 l 1
895 417 m 1
 895 127 688 -35 491 -35 c 0
 284 -35 75 107 75 447 c 2
 75 603 l 2
 75 923 274 1085 481 1085 c 0
 708 1085 925 923 925 633 c 1
 825 613 l 1
 825 823 688 945 531 945 c 0
 384 945 265 843 265 633 c 2
 265 417 l 2
 265 207 384 105 531 105 c 0
 688 105 825 227 825 437 c 1
 895 417 l 1
EndSplineSet
EndChar

StartChar: r
Encoding: 114 114 43
Width: 715
VWidth: 1920
Flags: MW
LayerCount: 2
Fore
SplineSet
120 1050 m 1
 295 1050 l 1
 295 774 l 1
 310 765 l 1
 310 0 l 1
 120 0 l 1
 120 1050 l 1
270 723 m 1
 270 923 448 1095 665 1075 c 1
 665 915 l 1
 518 915 310 833 310 663 c 1
 270 723 l 1
EndSplineSet
EndChar

StartChar: s
Encoding: 115 115 44
Width: 1000
VWidth: 1920
Flags: MW
LayerCount: 2
Fore
SplineSet
62 358 m 1
 212 358 l 1
 238.280162407 195.938998489 350.285478267 105 523.759884504 105 c 0
 668.505414366 105 762 168.312529998 762 266.736688537 c 0
 762 354.106965413 688.326642205 407.175111082 487.211855167 463.993018956 c 0
 217.090634428 540.306267029 112 618.181784853 112 778.356487191 c 0
 112 960.676259892 266.895212833 1085 493.695560072 1085 c 0
 731.385908663 1085 887.632581727 948.450620286 897 733 c 1
 738 733 l 1
 728.266601562 869.271484375 638.971679688 950 491.967773438 950 c 0
 364.301757812 950 282 895.34375 282 794.844726562 c 0
 282 716.940429688 331.455078125 683.631835938 536.948242188 622.90234375 c 0
 847.232421875 531.203125 932 458.533642848 932 301.913447603 c 0
 932 89.9927382596 776.804279251 -35 512.842256306 -35 c 0
 236.226582556 -35 78.769598532 102.263622387 62 358 c 1
EndSplineSet
EndChar

StartChar: t
Encoding: 116 116 45
Width: 625
VWidth: 1920
Flags: MW
LayerCount: 2
Fore
SplineSet
580 910 m 1
 30 910 l 1
 30 1050 l 1
 580 1050 l 1
 580 910 l 1
585 130 m 1
 585 0 l 1
 288 -40 160 42 160 252 c 2
 160 1300 l 1
 345 1300 l 1
 345 272 l 2
 345 142 428 110 585 130 c 1
EndSplineSet
EndChar

StartChar: u
Encoding: 117 117 46
Width: 1110
VWidth: 1920
Flags: MW
LayerCount: 2
Fore
SplineSet
982 0 m 1
 807 0 l 1
 807 193 l 1
 792 250 l 1
 792 1050 l 1
 982 1050 l 1
 982 0 l 1
  Spiro
    982 0 v
    807 0 v
    807 193 v
    792 250 v
    792 1050 v
    982 1050 v
    0 0 z
  EndSpiro
842 347 m 1
 842 127 675 -35 468 -35 c 0
 261 -35 122 87 122 287 c 2
 122 1050 l 1
 312 1050 l 1
 312 287 l 2
 312 167 381 95 518 95 c 0
 685 95 792 217 792 427 c 1
 842 347 l 1
EndSplineSet
EndChar

StartChar: v
Encoding: 118 118 47
Width: 1000
VWidth: 1920
InSpiro: 1
Flags: MW
LayerCount: 2
Fore
SplineSet
510 158 m 1
 812 1050 l 1
 982 1050 l 1
 592 0 l 1
 398 0 l 1
 18 1050 l 1
 208 1050 l 1
 510 158 l 1
  Spiro
    510 158 v
    812 1050 v
    982 1050 v
    592 0 v
    398 0 v
    18 1050 v
    208 1050 v
    0 0 z
  EndSpiro
EndSplineSet
EndChar

StartChar: w
Encoding: 119 119 48
Width: 1445
VWidth: 1920
Flags: MW
LayerCount: 2
Fore
SplineSet
1040 208 m 1
 1250 1050 l 1
 1410 1050 l 1
 1110 0 l 1
 945 0 l 1
 725 798 l 1
 510 0 l 1
 335 0 l 1
 35 1050 l 1
 225 1050 l 1
 430 208 l 1
 660 1050 l 1
 815 1050 l 1
 1040 208 l 1
EndSplineSet
EndChar

StartChar: x
Encoding: 120 120 49
Width: 1000
VWidth: 1920
InSpiro: 1
Flags: MW
LayerCount: 2
Fore
SplineSet
240 0 m 1
 40 0 l 1
 410 535 l 1
 55 1050 l 1
 275 1050 l 1
 513 675 l 1
 740 1050 l 1
 940 1050 l 1
 590 554 l 1
 955 0 l 1
 745 0 l 1
 488 403 l 1
 240 0 l 1
  Spiro
    240 0 v
    40 0 v
    410 535 v
    55 1050 v
    275 1050 v
    513 675 v
    740 1050 v
    940 1050 v
    590 554 v
    955 0 v
    745 0 v
    488 403 v
    0 0 z
  EndSpiro
EndSplineSet
EndChar

StartChar: y
Encoding: 121 121 50
Width: 1000
VWidth: 1920
Flags: MW
LayerCount: 2
Fore
SplineSet
497 208 m 1
 795 1050 l 1
 960 1050 l 1
 528 -111 l 2
 420.438954869 -400.070308789 318 -400 111 -360 c 1
 111 -220 l 1
 268 -270 327 -240 402 -10 c 1
 35 1050 l 1
 225 1050 l 1
 497 208 l 1
EndSplineSet
EndChar

StartChar: z
Encoding: 122 122 51
Width: 1000
VWidth: 1920
InSpiro: 1
Flags: MW
LayerCount: 2
Fore
SplineSet
52 0 m 1
 689 900 l 1
 122 900 l 1
 122 1050 l 1
 982 1050 l 1
 346 150 l 1
 962 150 l 1
 962 0 l 1
 52 0 l 1
  Spiro
    52 0 v
    689 900 v
    122 900 v
    122 1050 v
    982 1050 v
    346 150 v
    962 150 v
    962 0 v
    0 0 z
  EndSpiro
EndSplineSet
EndChar

StartChar: zero
Encoding: 48 48 52
Width: 1150
VWidth: 1920
Flags: MW
LayerCount: 2
Fore
SplineSet
100 488 m 2
 100 913 l 2
 100 1238.79492188 273.346679688 1435 575 1435 c 0
 876.653320312 1435 1050 1238.79492188 1050 913 c 2
 1050 488 l 2
 1050 161.891601562 876.377929688 -35 575 -35 c 0
 273.622070312 -35 100 161.891601562 100 488 c 2
290 508 m 2
 290 259.787109375 391.172851562 105 575 105 c 0
 758.827148438 105 860 259.787109375 860 508 c 2
 860 893 l 2
 860 1140.875 759.051757812 1295 575 1295 c 0
 390.948242188 1295 290 1140.875 290 893 c 2
 290 508 l 2
EndSplineSet
EndChar

StartChar: one
Encoding: 49 49 53
Width: 600
VWidth: 1920
Flags: MW
LayerCount: 2
Fore
SplineSet
205 1374 m 1
 268 1374 301 1397 311 1450 c 1
 395 1450 l 1
 395 0 l 1
 205 0 l 1
 205 1374 l 1
EndSplineSet
EndChar

StartChar: two
Encoding: 50 50 54
Width: 1080
VWidth: 1920
Flags: MW
LayerCount: 2
Fore
SplineSet
80 60 m 2
 80 604.034179688 785 735.631835938 785 1033 c 2
 785 1078 l 2
 785 1188 706 1285 549 1285 c 0
 379 1285 285 1175 285 1002 c 2
 285 902 l 1
 105 902 l 1
 105 1002 l 2
 105 1276 282 1435 559 1435 c 0
 806 1435 965 1303 965 1073 c 2
 965 1028 l 2
 965 632.094726562 300 501 300 180 c 2
 300 170 l 1
 1000 170 l 1
 1000 0 l 1
 80 0 l 1
 80 60 l 2
EndSplineSet
EndChar

StartChar: three
Encoding: 51 51 55
Width: 1100
VWidth: 1920
Flags: MW
LayerCount: 2
Fore
SplineSet
115 1052 m 2
 115 1286 297 1435 544 1435 c 1
 539 1285 l 1
 389 1285 295 1185 295 1052 c 2
 295 952 l 1
 115 952 l 1
 115 1052 l 2
530 770 m 1
 787 770 1015 672 1015 422 c 2
 1015 347 l 2
 1015 107 827 -35 530 -35 c 1
 540 115 l 1
 707 115 825 222 825 352 c 2
 825 447 l 2
 825 577 707 660 530 660 c 2
 440 660 l 1
 440 810 l 1
 510 810 l 2
 677 810 770 903 770 1023 c 2
 770 1088 l 2
 770 1198 706 1285 539 1285 c 1
 544 1435 l 1
 791 1435 965 1313 965 1083 c 2
 965 1058 l 2
 965 808 767 720 510 720 c 1
 530 770 l 1
80 407 m 1
 270 407 l 1
 270 327 l 2
 270 207 381 115 540 115 c 1
 530 -35 l 1
 278 -35 80 99 80 327 c 2
 80 407 l 1
EndSplineSet
EndChar

StartChar: four
Encoding: 52 52 56
Width: 1045
VWidth: 1920
InSpiro: 1
Flags: MW
LayerCount: 2
Fore
SplineSet
1010 480 m 1
 1010 330 l 1
 820 330 l 1
 820 0 l 1
 630 0 l 1
 630 330 l 1
 50 330 l 1
 50 500 l 1
 710 1400 l 1
 820 1400 l 1
 820 480 l 1
 1010 480 l 1
  Spiro
    1010 480 v
    1010 330 v
    820 330 v
    820 0 v
    630 0 v
    630 330 v
    50 330 v
    50 500 v
    710 1400 v
    820 1400 v
    820 480 v
    0 0 z
  EndSpiro
640 480 m 1
 640 1060.83300781 l 1
 205 480 l 1
 640 480 l 1
  Spiro
    640 480 v
    640 1060.83 v
    205 480 v
    0 0 z
  EndSpiro
EndSplineSet
EndChar

StartChar: five
Encoding: 53 53 57
Width: 1100
VWidth: 1920
Flags: MW
LayerCount: 2
Fore
SplineSet
241 1400 m 1
 941 1400 l 1
 941 1325 l 2
 941 1255 911 1250 741 1250 c 2
 386 1250 l 1
 275 653 l 1
 130 653 l 1
 241 1400 l 1
110 368 m 1
 280 368 l 1
 290 205 385 105 535 105 c 0
 684 105 810 205 810 398 c 2
 810 523 l 2
 810 723 699 805 565 805 c 0
 476 805 380 763 320 653 c 1
 240 653 l 1
 271 831 418 955 610 955 c 0
 810 955 1000 790 1000 493 c 2
 1000 428 l 2
 1000 131 805 -35 535 -35 c 0
 298 -35 122 104 110 368 c 1
EndSplineSet
EndChar

StartChar: six
Encoding: 54 54 58
Width: 1229
VWidth: 1920
Flags: MW
LayerCount: 2
Fore
SplineSet
630 740 m 0
 480 740 310 675 310 492 c 2
 310 422 l 1
 250 522 l 1
 250 786 463 890 670 890 c 0
 927 890 1119 731 1119 457 c 2
 1119 407 l 2
 1119 129 921 -35 629 -35 c 0
 252 -35 125 167 125 527 c 2
 125 843 l 2
 125 1223 293 1435 620 1435 c 0
 917 1435 1064 1266 1064 1082 c 2
 1064 1042 l 1
 894 1042 l 1
 894 1082 l 2
 894 1165 820 1285 640 1285 c 0
 413 1285 310 1138 310 838 c 2
 310 422 l 2
 310 232 432 115 619 115 c 0
 818 115 929 237 929 417 c 2
 929 457 l 2
 929 640 820 740 630 740 c 0
EndSplineSet
EndChar

StartChar: seven
Encoding: 55 55 59
Width: 1015
VWidth: 1920
InSpiro: 1
Flags: MW
LayerCount: 2
Fore
SplineSet
1015 1400 m 1
 435 0 l 1
 225 0 l 1
 785 1240 l 1
 75 1240 l 1
 75 1400 l 1
 1015 1400 l 1
  Spiro
    1015 1400 v
    435 0 v
    225 0 v
    785 1240 v
    75 1240 v
    75 1400 v
    0 0 z
  EndSpiro
EndSplineSet
EndChar

StartChar: eight
Encoding: 56 56 60
Width: 1182
VWidth: 1920
Flags: MW
LayerCount: 2
Fore
SplineSet
591 110 m 0
 770.859323272 110 877 196.100129374 877 342 c 2
 877 427 l 2
 877 574.159239402 771.689270782 659.927734375 591 659.927734375 c 0
 410.310729218 659.927734375 305 574.159239402 305 427 c 2
 305 342 l 2
 305 196.100129374 411.140676728 110 591 110 c 0
591 810 m 0
 741.429032212 810 827 887.231424317 827 1023 c 2
 827 1088 l 2
 827 1214.95949632 739.328916495 1290 591 1290 c 0
 442.671083505 1290 355 1214.95949632 355 1088 c 2
 355 1023 l 2
 355 887.231424317 440.570967788 810 591 810 c 0
  Spiro
    591 810 o
    726.302 838.501 o
    802.975 914.539 o
    827 1023 [
    827 1088 ]
    800.756 1189.17 o
    721.858 1262.13 o
    591 1290 o
    460.142 1262.13 o
    381.244 1189.17 o
    355 1088 [
    355 1023 ]
    379.025 914.539 o
    455.698 838.501 o
    0 0 z
  EndSpiro
622 760 m 1
 902.075490238 760 1067 623.61298968 1067 392 c 2
 1067 347 l 2
 1067 99.7502688302 899.091288054 -35 591 -35 c 0
 282.908711946 -35 115 99.7502688302 115 347 c 2
 115 392 l 2
 115 623.61298968 279.924509762 760 560 760 c 1
 562 720.282226562 l 1
 295.816444076 725.766068556 165 837.048280703 165 1058 c 2
 165 1083 l 2
 165 1304.25899984 323.226324062 1435 591 1435 c 0
 858.773675938 1435 1017 1304.25899984 1017 1083 c 2
 1017 1058 l 2
 1017 837.048280703 886.183555924 725.766068556 620 720.282226562 c 1
 622 760 l 1
  Spiro
    622 760 v
    851.395 720.228 o
    1008.85 598.355 o
    1067 392 [
    1067 347 ]
    1009.71 141.466 o
    846.196 10.614 o
    591 -35 o
    335.804 10.614 o
    172.295 141.466 o
    115 347 [
    115 392 ]
    173.147 598.355 o
    330.605 720.228 o
    560 760 v
    562 720.282 v
    352.08 756.465 o
    214.245 864.673 o
    165 1058 [
    165 1083 ]
    218.23 1276.32 o
    366.523 1394.93 o
    591 1435 o
    815.477 1394.93 o
    963.77 1276.32 o
    1017 1083 [
    1017 1058 ]
    967.755 864.673 o
    829.92 756.465 o
    620 720.282 v
    0 0 z
  EndSpiro
EndSplineSet
EndChar

StartChar: nine
Encoding: 57 57 61
Width: 1169
VWidth: 1920
Flags: MW
LayerCount: 2
Fore
SplineSet
569 660 m 0
 719 660 859 755 859 948 c 2
 859 1018 l 1
 919 918 l 1
 919 644 736 510 529 510 c 0
 292 510 110 669 110 943 c 2
 110 993 l 2
 110 1271 298 1435 570 1435 c 0
 927 1435 1044 1243 1044 913 c 2
 1044 557 l 2
 1044 177 866 -35 559 -35 c 0
 262 -35 135 134 135 318 c 2
 135 358 l 1
 305 358 l 1
 305 318 l 2
 305 235 359 115 539 115 c 0
 746 115 859 262 859 562 c 2
 859 1018 l 2
 859 1168 747 1285 580 1285 c 0
 401 1285 300 1163 300 983 c 2
 300 943 l 2
 300 760 399 660 569 660 c 0
EndSplineSet
EndChar

StartChar: comma
Encoding: 44 44 62
Width: 540
VWidth: 1920
Flags: MW
LayerCount: 2
Fore
SplineSet
185 -210 m 1
 135 -210 l 1
 245 0 l 1
 165 0 l 1
 165 210 l 1
 375 210 l 1
 375 10 l 1
 185 -210 l 1
EndSplineSet
EndChar

StartChar: period
Encoding: 46 46 63
Width: 540
VWidth: 1920
Flags: MW
LayerCount: 2
Fore
SplineSet
375 0 m 1
 165 0 l 1
 165 210 l 1
 375 210 l 1
 375 0 l 1
EndSplineSet
EndChar

StartChar: exclam
Encoding: 33 33 65
Width: 540
VWidth: 1920
Flags: MW
LayerCount: 2
Fore
SplineSet
375 0 m 1
 165 0 l 1
 165 200 l 1
 375 200 l 1
 375 0 l 1
175 940 m 1
 175 1450 l 1
 365 1450 l 1
 365 940 l 1
 305 430 l 1
 235 430 l 1
 175 940 l 1
EndSplineSet
EndChar

StartChar: at
Encoding: 64 64 66
Width: 1990
VWidth: 1920
Flags: MW
LayerCount: 2
Fore
SplineSet
1265 472 m 1
 1265 182 1118 40 921 40 c 0
 734 40 565 157 565 497 c 2
 565 528 l 2
 565 848 724 985 911 985 c 0
 1118 985 1275 843 1275 553 c 1
 1175 533 l 1
 1175 743 1098 845 961 845 c 0
 834 845 755 763 755 553 c 2
 755 472 l 2
 755 262 834 180 961 180 c 0
 1098 180 1175 282 1175 492 c 1
 1265 472 l 1
1340 -247 m 1
 1280 -309 1152 -360 985 -360 c 0
 428 -360 100 13 100 493 c 2
 100 583 l 2
 100 1093 488 1435 1025 1435 c 0
 1632 1435 1890 1024 1890 633 c 2
 1890 543 l 2
 1890 183 1697 40 1490 40 c 0
 1283 40 1175 185 1175 405 c 2
 1175 775 l 1
 1315 985 l 1
 1365 985 l 1
 1365 445 l 2
 1365 251 1403 180 1510 180 c 0
 1607 180 1710 303 1710 543 c 2
 1710 633 l 2
 1710 973 1472 1295 1025 1295 c 0
 618 1295 290 1013 290 593 c 2
 290 483 l 2
 290 103 548 -220 985 -220 c 0
 1102 -220 1220 -177 1290 -117 c 1
 1340 -247 l 1
EndSplineSet
EndChar

StartChar: question
Encoding: 63 63 69
Width: 1080
VWidth: 1920
Flags: MW
LayerCount: 2
Fore
SplineSet
665 0 m 1
 455 0 l 1
 455 200 l 1
 665 200 l 1
 665 0 l 1
610 400 m 1
 500 400 l 1
 450 734.034179688 805 745.631835938 805 1023 c 2
 805 1068 l 2
 805 1188 736 1285 579 1285 c 0
 409 1285 325 1185 325 1052 c 2
 325 952 l 1
 145 952 l 1
 145 1052 l 2
 145 1276 312 1435 589 1435 c 0
 836 1435 1005 1293 1005 1073 c 2
 1005 1048 l 2
 1005 732.094726562 670 722.572265625 610 400 c 1
EndSplineSet
EndChar

StartChar: quotesingle
Encoding: 39 39 70
Width: 370
VWidth: 1920
Flags: MW
LayerCount: 2
Fore
SplineSet
220 930 m 1
 150 930 l 1
 100 1220 l 1
 100 1420 l 1
 270 1420 l 1
 270 1220 l 1
 220 930 l 1
EndSplineSet
EndChar

StartChar: ampersand
Encoding: 38 38 71
Width: 1280
VWidth: 1920
Flags: MW
LayerCount: 2
Fore
SplineSet
1155 648 m 1
 1018.7265625 229.4453125 801.1875 -35 531.208984375 -35 c 0
 395.288085938 -35 263.367913672 21.1068193016 199 118.501953125 c 2
 146 198.696289062 l 2
 92.9752021487 278.928146646 66 351.583984375 66 448 c 1
 236 448 l 1
 236 389.00390625 249.988704778 341.438656656 284.5 286 c 2
 330 212.909179688 l 2
 372.492291785 144.649916752 441.1953125 105 526.639648438 105 c 0
 719.892578125 105 903.890625 335.658203125 1015 648 c 1
 1155 648 l 1
  Spiro
    1155 648 v
    992.893 285.205 o
    782.408 48.898 o
    531.209 -35 o
    399.102 -16.8823 o
    283.429 35.4867 o
    199 118.502 [
    146 198.696 ]
    101.728 277.485 o
    74.9396 358.428 o
    66 448 v
    236 448 v
    240.895 392.153 o
    256.609 339.477 o
    284.5 286 [
    330 212.909 ]
    380.82 154.643 o
    447.2 117.783 o
    526.64 105 o
    714.271 176.231 o
    882.104 368.645 o
    1015 648 v
    0 0 z
  EndSpiro
236 448 m 1
 66 448 l 1
 66 657 282 767 527 862 c 0
 687.7265625 924.322265625 825 1032 825 1163 c 1
 960 1183 l 1
 960 1015 865.04296875 877.8203125 637 776 c 0
 383.354492188 662.748046875 236 592 236 448 c 1
  Spiro
    236 448 v
    66 448 v
    130.951 626.959 o
    298.798 759.003 o
    527 862 o
    675.561 938.535 o
    783.537 1040.7 o
    825 1163 v
    960 1183 v
    927.003 1025.59 o
    821.95 889.314 o
    637 776 o
    420.484 672.727 o
    283.504 571.762 o
    0 0 z
  EndSpiro
1050 0 m 1
 558 734 l 2
 435.645507812 920.32421875 340 1030 340 1163 c 0
 340 1303.00195312 438 1435 645 1435 c 0
 832 1435 950 1353 960 1183 c 1
 825 1163 l 1
 825 1243 762 1300 665 1300 c 0
 568 1300 510 1242.02636719 510 1153 c 0
 510 1034 580.54653275 972.539365358 647 876 c 2
 1250 0 l 1
 1050 0 l 1
  Spiro
    1050 0 v
    558 734 ]
    447.199 898.331 o
    369.273 1034.2 o
    340 1163 o
    373.008 1295.62 o
    474.062 1395.67 o
    645 1435 o
    807.419 1407.5 o
    915.522 1323.78 o
    960 1183 v
    825 1163 v
    805.113 1234.01 o
    749.521 1282.29 o
    665 1300 o
    581.773 1281.71 o
    528.593 1230.61 o
    510 1153 o
    530.712 1049.84 o
    582.008 964.193 o
    647 876 [
    1250 0 v
    0 0 z
  EndSpiro
EndSplineSet
EndChar

StartChar: numbersign
Encoding: 35 35 72
Width: 1300
VWidth: 1920
Flags: MW
LayerCount: 2
Fore
SplineSet
70 540 m 1
 1150 540 l 1
 1150 430 l 1
 70 430 l 1
 70 540 l 1
150 1050 m 1
 1230 1050 l 1
 1230 940 l 1
 150 940 l 1
 150 1050 l 1
940 1400 m 1
 1090 1400 l 1
 760 0 l 1
 610 0 l 1
 940 1400 l 1
520 1400 m 1
 670 1400 l 1
 340 0 l 1
 190 0 l 1
 520 1400 l 1
EndSplineSet
EndChar

StartChar: grave
Encoding: 96 96 74
Width: 666
Flags: MW
LayerCount: 2
Fore
SplineSet
390 1104 m 1
 270 1104 l 1
 -25 1400 l 1
 205 1400 l 1
 390 1104 l 1
EndSplineSet
EndChar

StartChar: less
Encoding: 60 60 75
Width: 1010
VWidth: 1920
Flags: MW
LayerCount: 2
Fore
SplineSet
860 80 m 1
 70 550 l 1
 70 650 l 1
 860 1120 l 1
 860 940 l 1
 259.01953125 600 l 1
 860 260 l 1
 860 80 l 1
EndSplineSet
EndChar

StartChar: equal
Encoding: 61 61 76
Width: 1180
VWidth: 1920
Flags: MW
LayerCount: 2
Fore
SplineSet
1030 610 m 1
 150 610 l 1
 150 760 l 1
 1030 760 l 1
 1030 610 l 1
1030 240 m 1
 150 240 l 1
 150 390 l 1
 1030 390 l 1
 1030 240 l 1
EndSplineSet
EndChar

StartChar: greater
Encoding: 62 62 77
Width: 1010
VWidth: 1920
Flags: MW
LayerCount: 2
Fore
SplineSet
150 1120 m 1
 940 650 l 1
 940 550 l 1
 150 80 l 1
 150 260 l 1
 750.98046875 600 l 1
 150 940 l 1
 150 1120 l 1
EndSplineSet
EndChar

StartChar: dollar
Encoding: 36 36 78
Width: 1110
VWidth: 1920
Flags: MW
LayerCount: 2
Fore
SplineSet
510 1590 m 1
 590 1590 l 1
 590 -190 l 1
 510 -190 l 1
 510 1590 l 1
  Spiro
    510 1590 v
    590 1590 v
    590 -190 v
    510 -190 v
    0 0 z
  EndSpiro
60 508 m 1
 230 508 l 1
 240 292.59765625 348.510742188 115 555.08984375 115 c 0
 733.124023438 115 860 196.604492188 860 348 c 0
 860 501.729492188 741.254882812 562.672851562 543 614.35546875 c 0
 240.51953125 693.208007812 110 824.966796875 110 1053 c 0
 110 1303 293 1435 540 1435 c 0
 827 1435 970 1263 980 963 c 1
 820 963 l 1
 820 1173 727 1295 540 1295 c 0
 383 1295 280 1208 280 1068 c 0
 280 926.723632812 393.600605769 834.996889601 563 792.26171875 c 0
 903.348632812 706.400390625 1040 576.510742188 1040 378 c 0
 1040 110.7265625 884.341796875 -35 545.27734375 -35 c 0
 277.916015625 -35 80.2587890625 152.94921875 60 508 c 1
EndSplineSet
EndChar

StartChar: plus
Encoding: 43 43 79
Width: 1040
VWidth: 1920
Flags: MW
LayerCount: 2
Fore
SplineSet
445 170 m 1
 445 1190 l 1
 595 1190 l 1
 595 170 l 1
 445 170 l 1
995 620 m 1
 45 620 l 1
 45 770 l 1
 995 770 l 1
 995 620 l 1
EndSplineSet
EndChar

StartChar: hyphen
Encoding: 45 45 80
Width: 570
VWidth: 1920
Flags: MW
LayerCount: 2
Fore
SplineSet
40 690 m 1
 530 690 l 1
 530 540 l 1
 40 540 l 1
 40 690 l 1
EndSplineSet
EndChar

StartChar: backslash
Encoding: 92 92 81
Width: 840
VWidth: 2048
Flags: MW
LayerCount: 2
Fore
SplineSet
40 1400 m 1
 200 1400 l 1
 825 -100 l 1
 665 -100 l 1
 40 1400 l 1
EndSplineSet
EndChar

StartChar: slash
Encoding: 47 47 82
Width: 840
VWidth: 2048
Flags: MW
LayerCount: 2
Fore
SplineSet
800 1400 m 1
 175 -100 l 1
 15 -100 l 1
 640 1400 l 1
 800 1400 l 1
EndSplineSet
EndChar

StartChar: parenleft
Encoding: 40 40 83
Width: 535
VWidth: 2048
Flags: MW
LayerCount: 2
Fore
SplineSet
70 838 m 2
 70 1248 213 1570 500 1620 c 1
 500 1530 l 1
 353 1470 245 1258 245 858 c 2
 245 392 l 2
 245 -18 353 -220 500 -280 c 1
 500 -370 l 1
 213 -320 70 2 70 412 c 2
 70 838 l 2
  Spiro
    70 838 ]
    117.608 1211.52 o
    261.154 1486.36 o
    500 1620 v
    500 1530 v
    368.669 1418.17 o
    278.38 1196.39 o
    245 858 [
    245 392 ]
    278.38 49.1676 o
    368.669 -170.384 o
    500 -280 v
    500 -370 v
    261.154 -236.359 o
    117.608 38.4791 o
    70 412 [
    0 0 z
  EndSpiro
EndSplineSet
EndChar

StartChar: parenright
Encoding: 41 41 84
Width: 535
VWidth: 2048
Flags: MW
LayerCount: 2
Fore
SplineSet
465 412 m 2
 465 2 322 -320 35 -370 c 1
 35 -280 l 1
 182 -220 290 -8 290 392 c 2
 290 858 l 2
 290 1268 182 1470 35 1530 c 1
 35 1620 l 1
 322 1570 465 1248 465 838 c 2
 465 412 l 2
EndSplineSet
EndChar

StartChar: asterisk
Encoding: 42 42 85
Width: 914
VWidth: 2048
Flags: MW
LayerCount: 2
Fore
SplineSet
468 986 m 1
 446 1053 l 1
 773 1212 l 1
 843 1224 l 1
 889 1081 l 1
 825 1050 l 1
 468 986 l 1
428 1000 m 1
 485 1041 l 1
 737 779 l 1
 770 717 l 1
 649 628 l 1
 600 679 l 1
 428 1000 l 1
429 1041 m 1
 486 1000 l 1
 314 679 l 1
 265 628 l 1
 144 717 l 1
 177 779 l 1
 429 1041 l 1
468 1053 m 1
 446 986 l 1
 89 1050 l 1
 25 1081 l 1
 71 1224 l 1
 141 1212 l 1
 468 1053 l 1
492 1020 m 1
 422 1020 l 1
 372 1380 l 1
 382 1450 l 1
 532 1450 l 1
 542 1380 l 1
 492 1020 l 1
EndSplineSet
EndChar

StartChar: underscore
Encoding: 95 95 86
Width: 900
VWidth: 1920
Flags: W
LayerCount: 2
Fore
SplineSet
0 0 m 1
 900 0 l 1
 900 -150 l 1
 0 -150 l 1
 0 0 l 1
EndSplineSet
EndChar

StartChar: bracketleft
Encoding: 91 91 87
Width: 550
VWidth: 1920
Flags: MW
LayerCount: 2
Fore
SplineSet
260 1450 m 1
 260 -210 l 1
 500 -210 l 1
 500 -360 l 1
 70 -360 l 1
 70 1600 l 1
 500 1600 l 1
 500 1450 l 1
 260 1450 l 1
EndSplineSet
EndChar

StartChar: bracketright
Encoding: 93 93 88
Width: 550
VWidth: 1920
Flags: MW
LayerCount: 2
Fore
SplineSet
290 -210 m 1
 290 1450 l 1
 50 1450 l 1
 50 1600 l 1
 480 1600 l 1
 480 -360 l 1
 50 -360 l 1
 50 -210 l 1
 290 -210 l 1
EndSplineSet
EndChar

StartChar: percent
Encoding: 37 37 89
Width: 1755
VWidth: 2048
Flags: MW
LayerCount: 2
Fore
SplineSet
100 1048 m 2
 100 1083 l 2
 100 1273 258 1400 435 1400 c 0
 612 1400 780 1273 780 1083 c 2
 780 1048 l 2
 780 858 612 730 435 730 c 0
 258 730 100 858 100 1048 c 2
275 1028 m 2
 275 918 348 860 435 860 c 0
 522 860 605 918 605 1028 c 2
 605 1103 l 2
 605 1213 522 1270 435 1270 c 0
 348 1270 275 1213 275 1103 c 2
 275 1028 l 2
975 283 m 2
 975 318 l 2
 975 508 1133 635 1310 635 c 0
 1487 635 1655 508 1655 318 c 2
 1655 283 l 2
 1655 93 1487 -35 1310 -35 c 0
 1133 -35 975 93 975 283 c 2
1150 263 m 2
 1150 153 1223 95 1310 95 c 0
 1397 95 1480 153 1480 263 c 2
 1480 338 l 2
 1480 448 1397 505 1310 505 c 0
 1223 505 1150 448 1150 338 c 2
 1150 263 l 2
1385 1400 m 1
 530 0 l 1
 370 0 l 1
 1225 1400 l 1
 1385 1400 l 1
EndSplineSet
EndChar

StartChar: braceleft
Encoding: 123 123 90
Width: 575
VWidth: 2048
Flags: MW
LayerCount: 2
Fore
SplineSet
155 1278 m 2
 155 1508 198 1600 475 1600 c 1
 475 1510 l 1
 368 1510 330 1458 330 1278 c 2
 330 956 l 2
 330 771 302 668 146 620 c 1
 302 572 330 469 330 284 c 2
 330 -38 l 2
 330 -218 368 -270 475 -270 c 1
 475 -360 l 1
 198 -360 155 -268 155 -38 c 2
 155 284 l 2
 155 464 117 526 10 556 c 1
 10 684 l 1
 117 714 155 776 155 956 c 2
 155 1278 l 2
EndSplineSet
EndChar

StartChar: bar
Encoding: 124 124 91
Width: 415
VWidth: 1920
Flags: MW
LayerCount: 2
Fore
SplineSet
288 1600 m 1
 288 -360 l 1
 128 -360 l 1
 128 1600 l 1
 288 1600 l 1
EndSplineSet
EndChar

StartChar: braceright
Encoding: 125 125 92
Width: 575
VWidth: 2048
Flags: MW
LayerCount: 2
Fore
SplineSet
420 -38 m 2
 420 -268 377 -360 100 -360 c 1
 100 -270 l 1
 207 -270 245 -218 245 -38 c 2
 245 284 l 2
 245 469 273 572 429 620 c 1
 273 668 245 771 245 956 c 2
 245 1278 l 2
 245 1458 207 1510 100 1510 c 1
 100 1600 l 1
 377 1600 420 1508 420 1278 c 2
 420 956 l 2
 420 776 458 714 565 684 c 1
 565 556 l 1
 458 526 420 464 420 284 c 2
 420 -38 l 2
EndSplineSet
EndChar

StartChar: asciitilde
Encoding: 126 126 93
Width: 1330
VWidth: 2048
Flags: MW
LayerCount: 2
Fore
SplineSet
422 659 m 0
 328 659 260 587 260 438 c 1
 100 438 l 1
 100 651 249 809 422 809 c 0
 661 809 757 552 909 552 c 0
 1003 552 1071 624 1071 773 c 1
 1230 773 l 1
 1230 560 1082 402 909 402 c 0
 670 402 574 659 422 659 c 0
EndSplineSet
EndChar

StartChar: asciicircum
Encoding: 94 94 94
Width: 820
VWidth: 1920
Flags: W
LayerCount: 2
Fore
SplineSet
410 1191.48144531 m 1
 230 730 l 1
 60 730 l 1
 340 1400 l 1
 480 1400 l 1
 760 730 l 1
 590 730 l 1
 410 1191.48144531 l 1
EndSplineSet
EndChar
